# xmcd
#
# Track frame offsets:
#	150
#	19090
#	40333
#	61857
#	76681
#	100780
#	117833
#	141516
#	163162
#	180279
#
# Disc length: 2629 seconds
#
# Revision: 0
# Processed by: cddbd v1.5.1PL0 Copyright (c) Steve Scherf et al.
# Submitted via: dBpowerAMP V4.0
#
DISCID=770a430a
DTITLE=Glossary - How We Handle Our Midnights
DYEAR=2002
DGENRE=Indie Rock
TTITLE0=These City Lights Shine
TTITLE1=Remember Me Tomorrow, Tonight
TTITLE2=Hold Me Down
TTITLE3=At Midnight
TTITLE4=Golden Houses
TTITLE5=When Easy Street Gets Hard To Find
TTITLE6=Lonesome Stray
TTITLE7=The Rutherford County Line
TTITLE8=Marigold Moon
TTITLE9=Daylight Saving
EXTD=
EXTT0=
EXTT1=
EXTT2=
EXTT3=
EXTT4=
EXTT5=
EXTT6=
EXTT7=
EXTT8=
EXTT9=
PLAYORDER=
